<?xml version="1.0" encoding="UTF-8" standalone="no"?>
<!-- Created with Inkscape (http://www.inkscape.org/) -->

<svg
   xmlns:dc="http://purl.org/dc/elements/1.1/"
   xmlns:cc="http://creativecommons.org/ns#"
   xmlns:rdf="http://www.w3.org/1999/02/22-rdf-syntax-ns#"
   xmlns:svg="http://www.w3.org/2000/svg"
   xmlns="http://www.w3.org/2000/svg"
   xmlns:sodipodi="http://sodipodi.sourceforge.net/DTD/sodipodi-0.dtd"
   xmlns:inkscape="http://www.inkscape.org/namespaces/inkscape"
   width="378.31601"
   height="640.47998"
   id="svg2"
   version="1.1"
   inkscape:version="0.48.5 r10040"
   sodipodi:docname="logo.svg"
   inkscape:export-filename="/home/retrohacker/Development/storjshare-dns/.github/logo.png"
   inkscape:export-xdpi="90"
   inkscape:export-ydpi="90">
  <defs
     id="defs4">
    <linearGradient
       gradientUnits="userSpaceOnUse"
       gradientTransform="matrix(97.417,0,0,97.417,192.862,279.652)"
       x2="0.98400003"
       x1="0.043000001"
       id="f">
      <stop
         id="stop3502"
         stop-color="#6BBF47"
         offset=".16" />
      <stop
         id="stop3504"
         stop-color="#79B461"
         offset=".38" />
      <stop
         id="stop3506"
         stop-color="#75AC64"
         offset=".47" />
      <stop
         id="stop3508"
         stop-color="#659E5A"
         offset=".7" />
      <stop
         id="stop3510"
         stop-color="#3E863D"
         offset=".9" />
    </linearGradient>
    <clipPath
       id="e">
      <path
         id="path3499"
         d="m 241.066,225.953 c -0.707,0.07 -1.398,0.29 -2.035,0.652 l -42.01,24.247 45.3,82.51 c 0.63,-0.09 1.25,-0.3 1.81,-0.624 l 42.13,-24.336 c 1.3,-0.754 2.19,-2.03 2.46,-3.476 l -46.18,-78.89 c -0.34,-0.067 -0.68,-0.102 -1.03,-0.102 -0.14,0 -0.28,0.007 -0.42,0.02"
         inkscape:connector-curvature="0" />
    </clipPath>
    <linearGradient
       gradientUnits="userSpaceOnUse"
       gradientTransform="matrix(106.8057,-78.916731,78.916731,106.8057,235.18824,285.39477)"
       x2="0.58200002"
       x1="-0.456"
       id="d">
      <stop
         id="stop3492"
         stop-color="#3E863D"
         offset=".57" />
      <stop
         id="stop3494"
         stop-color="#619857"
         offset=".72" />
      <stop
         id="stop3496"
         stop-color="#76AC64"
         offset="1" />
    </linearGradient>
    <clipPath
       id="c">
      <path
         id="path3489"
         d="m 195.398,307.086 c 0.403,0.523 0.907,0.976 1.5,1.316 l 36.14,20.875 6.02,3.46 c 0.9,0.52 1.926,0.74 2.934,0.665 0.336,-0.027 0.672,-0.09 1,-0.183 l 44.434,-81.36 c -0.34,-0.37 -0.738,-0.68 -1.184,-0.94 l -27.586,-15.93 -14.582,-8.39 c -0.414,-0.24 -0.863,-0.41 -1.32,-0.53 z m 0,0"
         inkscape:connector-curvature="0" />
    </clipPath>
    <linearGradient
       gradientUnits="userSpaceOnUse"
       gradientTransform="matrix(-38.064915,77.652126,-77.652126,-38.064915,258.72325,244.62943)"
       x2="1.251"
       x1="-0.34799999"
       id="b">
      <stop
         id="stop3482"
         stop-color="#3E863D"
         offset=".3" />
      <stop
         id="stop3484"
         stop-color="#55934F"
         offset=".5" />
      <stop
         id="stop3486"
         stop-color="#5AAD45"
         offset=".8" />
    </linearGradient>
    <clipPath
       id="a">
      <path
         id="path3479"
         d="m 239.03,226.605 -42.13,24.317 c -1.578,0.91 -2.546,2.59 -2.546,4.406 v 48.668 c 0,1.817 0.968,3.496 2.546,4.406 l 42.133,24.336 c 1.575,0.907 3.517,0.907 5.09,0 l 42.126,-24.336 c 1.57,-0.91 2.54,-2.59 2.54,-4.406 v -48.668 c 0,-1.816 -0.97,-3.496 -2.55,-4.406 l -42.12,-24.317 c -0.79,-0.453 -1.67,-0.68 -2.55,-0.68 -0.88,0 -1.76,0.227 -2.55,0.68"
         inkscape:connector-curvature="0" />
    </clipPath>
  </defs>
  <sodipodi:namedview
     id="base"
     pagecolor="#ffffff"
     bordercolor="#666666"
     borderopacity="1.0"
     inkscape:pageopacity="0.0"
     inkscape:pageshadow="2"
     inkscape:zoom="0.70000002"
     inkscape:cx="-10.856448"
     inkscape:cy="403.11182"
     inkscape:document-units="px"
     inkscape:current-layer="layer1"
     showgrid="false"
     fit-margin-top="20"
     fit-margin-left="20"
     fit-margin-right="20"
     fit-margin-bottom="20"
     inkscape:window-width="1676"
     inkscape:window-height="1027"
     inkscape:window-x="0"
     inkscape:window-y="0"
     inkscape:window-maximized="0" />
  <metadata
     id="metadata7">
    <rdf:RDF>
      <cc:Work
         rdf:about="">
        <dc:format>image/svg+xml</dc:format>
        <dc:type
           rdf:resource="http://purl.org/dc/dcmitype/StillImage" />
        <dc:title></dc:title>
      </cc:Work>
    </rdf:RDF>
  </metadata>
  <g
     inkscape:label="Layer 1"
     inkscape:groupmode="layer"
     id="layer1"
     transform="translate(-1497.974,729.03495)">
    <text
       xml:space="preserve"
       style="font-size:144px;font-style:normal;font-weight:normal;line-height:125%;letter-spacing:0px;word-spacing:0px;fill:#000000;fill-opacity:1;stroke:none;font-family:Sans"
       x="-334.28571"
       y="-436.20926"
       id="text3614"
       sodipodi:linespacing="125%"><tspan
         sodipodi:role="line"
         id="tspan3616"
         x="-334.28571"
         y="-436.20926" /></text>
    <g
       id="g3405"
       transform="matrix(0.29794966,0,0,0.29794966,1589.3496,-386.07869)">
      <path
         style="fill:#2683ff"
         inkscape:connector-curvature="0"
         d="m -188.71932,921.66978 c -6.5227,-6.51918 -9.7788,-14.51366 -9.7788,-23.96952 0,-9.45597 3.2561,-17.45044 9.7788,-23.973 6.5226,-6.51919 14.5102,-9.77531 23.973,-9.77531 9.456,0 17.447,3.25612 23.9627,9.77531 6.526,6.52256 9.7821,14.5205 9.7821,23.973 0,9.46281 -3.2561,17.45034 -9.7821,23.96952 -6.5157,6.51919 -14.5137,9.77531 -23.9627,9.77531 -9.4698,0 -17.4504,-3.26307 -23.973,-9.77531 z"
         id="path3757" />
      <g
         transform="translate(-25.132592,0)"
         id="g3107">
        <path
           style="fill:#2683ff"
           d="m 677.23074,663.3453 -51.094,268.08383 59.81197,0 25.547,-158.64686 30.97574,158.64686 47.58129,0 31.67829,-158.58299 25.547,158.58299 59.84385,0 -51.094,-268.08383 -62.46242,0 -26.95209,135.81422 -26.95209,-135.81422 z"
           id="path3749-3-0"
           inkscape:connector-curvature="0"
           sodipodi:nodetypes="cccccccccccccc" />
        <path
           id="path3749-5"
           d="m -29.261801,715.11885 0,54.07899 90.588751,0 0,50.42954 -90.588751,0.0143 0,111.79286 -58.052702,0 -0.302477,-216.31621 0,-51.77846 211.71659,0 0,51.77846 z"
           inkscape:connector-curvature="0"
           style="fill:#2683ff"
           sodipodi:nodetypes="cccccccccccc" />
        <path
           style="fill:#2683ff"
           d="m 196.40427,663.32933 -83.21936,268.11576 59.84386,0 16.95677,-54.60672 74.15027,0 16.92479,54.60672 59.84396,0 -83.21947,-268.11576 -1.46885,0 -59.81197,0 z m 30.65641,94.01297 21.01241,67.69952 -42.02482,0 21.01241,-67.69952 z"
           id="path3749-3"
           inkscape:connector-curvature="0" />
        <path
           id="path3753-0"
           d="m 592.68917,752.31712 c 0,42.9578 -17.00613,70.70422 -51.01123,83.23227 l 67.88881,95.88515 h -73.64087 l -59.45002,-85.53361 h -41.42334 v 85.53361 h -59.8319 V 663.33988 h 101.64059 c 41.67329,0 71.39835,7.03298 89.17161,21.09181 17.76967,14.06587 26.65635,36.68856 26.65635,67.88543 z m -72.10304,31.83218 c 7.41129,-6.64764 11.11867,-17.19354 11.11867,-31.64119 0,-14.44427 -3.83236,-24.35835 -11.50055,-29.72159 -7.66819,-5.37365 -21.09181,-8.05354 -40.27791,-8.05354 h -44.87382 v 79.39294 h 43.72482 c 20.44966,-0.0102 34.3836,-3.32561 41.80879,-9.97662 z"
           inkscape:connector-curvature="0"
           style="fill:#2683ff" />
      </g>
    </g>
    <g
       transform="translate(1380.4177,-803.92407)"
       id="g3288">
      <path
         style="fill:#2683ff"
         inkscape:connector-curvature="0"
         d="m 474.092,204.304 c -0.305,11.814 -5.433,20.618 -15.329,26.552 -1.824,1.093 -2.459,2.204 -2.454,4.286 0.062,32.228 0.059,64.458 0.009,96.679 -0.003,1.936 0.49,3.104 2.265,4.132 11.452,6.612 17.244,18.818 15.188,31.646 -1.972,12.295 -11.8,22.396 -24.528,24.814 -7.381,1.406 -14.53,0.285 -20.999,-3.684 -1.971,-1.207 -3.36,-0.996 -5.207,0.072 -27.706,16.047 -55.442,32.055 -83.208,48.002 -1.899,1.09 -2.612,2.293 -2.608,4.506 0.03,15.508 -11.938,29.004 -26.889,30.506 -15.922,1.604 -30,-8.396 -33.439,-23.854 -0.528,-2.375 -0.706,-4.855 -0.761,-7.291 -0.039,-1.645 -0.497,-2.656 -1.961,-3.506 -28.152,-16.191 -56.28,-32.424 -84.396,-48.684 -1.523,-0.885 -2.72,-0.889 -4.254,0.037 -18.37,11.059 -41.788,0.457 -45.683,-20.201 -2.46,-13.049 2.854,-25.256 14.532,-32.127 1.847,-1.088 2.681,-2.187 2.677,-4.443 -0.083,-32.229 -0.071,-64.456 -0.021,-96.682 0.002,-1.938 -0.501,-3.081 -2.273,-4.11 -11.729,-6.812 -17.243,-18.646 -14.991,-31.935 2.235,-13.2 12.445,-22.883 25.729,-24.773 7.121,-1.013 13.986,0.284 20.148,4.218 1.431,0.915 2.494,0.887 3.951,0.047 28.033,-16.223 56.089,-32.398 84.167,-48.538 1.697,-0.976 2.359,-2.098 2.364,-4.098 0.048,-17.751 14.071,-31.336 31.845,-30.979 13.852,0.277 26.812,11.711 28.778,25.381 0.18,1.257 0.461,2.03 0.461,3.762 0,3.789 1.396,5.396 4.347,7.082 27.244,15.588 54.41,31.3 81.562,47.039 1.864,1.082 3.221,1.129 5.162,0.025 18.441,-10.52 40.802,-0.438 45.29,20.375 0.419,1.938 0.379,3.975 0.526,5.744 z M 233.671,314.867 c -0.278,0.236 -0.466,0.442 -0.699,0.571 -15.282,8.829 -30.555,17.681 -45.893,26.409 -0.848,0.479 -2.497,0.379 -3.356,-0.142 -4.055,-2.449 -8.369,-4.074 -13.094,-4.2 -15.718,-0.401 -25.278,12.439 -25.813,23.592 -0.622,13.062 9.263,26.445 25.249,26.324 14.02,-0.102 24.688,-11.344 24.549,-25.369 -0.023,-2.506 0.713,-3.924 2.913,-5.172 16.287,-9.275 32.51,-18.662 48.718,-28.071 1.566,-0.914 2.826,-1.062 4.531,-0.261 10.106,4.75 20.56,5.556 31.334,2.51 1.07,-0.301 2.492,0.004 3.564,0.461 3.168,1.349 6.193,3.061 9.383,4.346 1.818,0.736 2.432,1.729 2.428,3.66 -0.055,25.403 -0.053,50.803 -0.005,76.204 0.002,1.791 -0.563,2.81 -2.198,3.594 -8.561,4.125 -15.019,14.771 -13.257,26.16 2.046,13.227 15.638,23.219 28.749,20.654 11.555,-2.26 19.146,-10.145 20.771,-22.281 1.102,-8.229 -2.859,-19.098 -13.444,-24.537 -1.434,-0.732 -2.226,-1.535 -2.221,-3.301 0.053,-24.674 0.056,-49.346 0,-74.016 -0.002,-2.193 1.006,-2.643 2.925,-2.982 5.071,-0.891 10.152,-1.87 15.106,-3.262 2.24,-0.626 4.014,-0.718 6.186,0.217 10.861,4.675 21.44,3.874 31.556,-2.23 1.445,-0.868 2.48,-0.907 3.932,-0.061 13.363,7.782 26.753,15.531 40.199,23.167 2.174,1.23 3.017,2.594 2.95,5.146 -0.387,14.761 12.484,26.821 27.496,25.224 14.735,-1.566 25.174,-15.752 21.756,-30.094 -4.097,-17.188 -22.714,-24.94 -37.752,-15.652 -1.585,0.979 -2.73,1.243 -4.42,0.256 -12.726,-7.437 -25.481,-14.817 -38.29,-22.11 -1.893,-1.073 -2.145,-2.074 -1.543,-4.104 3.863,-13.016 1.239,-24.592 -8.081,-34.562 -1.821,-1.949 -10.366,-15.597 -11.558,-18.113 -0.942,-1.99 -0.544,-3.053 1.354,-4.141 19.419,-11.121 38.811,-22.297 58.168,-33.525 1.56,-0.901 2.618,-0.918 4.146,0.109 5.456,3.664 11.572,4.821 17.989,3.698 12.492,-2.188 21.547,-13.492 20.433,-26.835 -1.21,-14.476 -15.41,-25.296 -29.591,-22.158 -12.444,2.755 -20.262,12.482 -20.119,25.268 0.021,2.18 -0.585,3.423 -2.527,4.532 -19.664,11.25 -39.279,22.577 -58.859,33.974 -1.767,1.025 -2.731,0.814 -4.151,-0.555 -9.227,-8.888 -20.326,-13.88 -32.992,-15.462 -4.273,-0.538 -4.275,-0.514 -4.275,-4.926 -0.002,-23.125 0.056,-46.25 -0.069,-69.373 -0.016,-3.228 0.738,-5.098 3.761,-6.835 10.842,-6.229 14.965,-19.642 10.003,-31.076 -5.003,-11.535 -17.783,-17.698 -29.77,-14.047 -10.909,3.321 -16.989,11.03 -18.061,22.245 -0.823,8.655 3.271,18.27 13.149,23.667 1.517,0.828 2.576,1.557 2.568,3.639 -0.083,25.495 -0.077,50.984 -0.013,76.479 0.004,2.021 -0.917,2.705 -2.565,3.539 -4.933,2.487 -10.224,4.661 -14.41,8.124 -4.83,3.987 -9.345,6.291 -16.07,6.291 -0.656,-0.021 -1.077,0.044 -1.76,0.028 -1.667,-0.036 -3.539,-0.105 -4.901,-0.884 -19.837,-11.312 -39.566,-22.812 -59.428,-34.087 -2.837,-1.608 -4.207,-3.331 -3.733,-6.602 0.188,-1.303 -0.213,-2.697 -0.425,-4.04 -1.939,-12.214 -13.885,-22.432 -28.305,-20.061 -14.145,2.327 -23.125,15.128 -20.793,28.829 2.977,17.499 22.945,26.357 38.012,16.786 1.7,-1.081 2.876,-1.166 4.617,-0.149 14.932,8.708 29.924,17.313 44.896,25.953 2.565,1.481 5.123,2.976 7.673,4.456 -17.205,18.216 -19.136,37.791 -6.623,59.164 z"
         id="path3290" />
      <path
         style="fill:#2683ff"
         inkscape:connector-curvature="0"
         d="m 275.034,255.974 c 3.936,0.35 5.896,-0.976 8.771,-3.646 12.416,-11.54 27.065,-15.113 43.147,-9.771 15.812,5.251 25.616,16.487 28.865,32.971 0.634,3.229 1.904,5.169 4.788,6.812 8.243,4.695 12.993,14.854 11.361,23.315 -2.114,10.959 -9.297,18.555 -19.456,20.164 -5.41,0.86 -10.782,0.245 -15.544,-2.688 -2.133,-1.314 -3.822,-1.17 -6.025,-0.247 -14.146,5.946 -27.842,4.937 -40.859,-3.251 -1.999,-1.259 -3.672,-1.357 -5.836,-0.648 -18.345,5.991 -37.425,-4.417 -42.084,-22.713 -5.337,-20.974 11.397,-41.256 32.872,-40.298 z"
         id="path3292" />
      <path
         style="fill:#2683ff"
         inkscape:connector-curvature="0"
         d="m 436.637,362.519 c -0.002,-4.102 2.949,-7.086 6.988,-7.074 3.889,0.016 7.199,3.227 7.239,7.027 0.042,3.656 -3.496,7.191 -7.184,7.197 -3.945,0.001 -7.04,-3.14 -7.043,-7.15 z"
         id="path3294" />
      <path
         style="fill:#2683ff"
         inkscape:connector-curvature="0"
         d="m 299.567,125.427 c 0.016,-3.975 3.113,-7.041 7.119,-7.045 4.009,-0.002 7.086,3.056 7.1,7.047 0.012,3.825 -3.328,7.206 -7.088,7.161 -3.823,-0.038 -7.144,-3.379 -7.131,-7.163 z"
         id="path3296" />
      <path
         style="fill:#2683ff"
         inkscape:connector-curvature="0"
         d="m 176.709,362.551 c -0.015,4 -3.14,7.15 -7.063,7.119 -3.708,-0.033 -7.137,-3.494 -7.153,-7.229 -0.021,-3.729 3.372,-6.996 7.265,-6.996 4.034,0.002 6.967,3 6.951,7.106 z"
         id="path3298" />
      <path
         style="fill:#2683ff"
         inkscape:connector-curvature="0"
         d="m 306.762,434.521 c 4.001,0.027 7.042,3.072 7.021,7.033 -0.023,3.947 -3.111,6.918 -7.165,6.895 -4.022,-0.023 -7.097,-3.092 -7.052,-7.037 0.047,-3.924 3.179,-6.918 7.196,-6.891 z"
         id="path3300" />
      <path
         style="fill:#2683ff"
         inkscape:connector-curvature="0"
         d="m 169.838,211.4 c -4.055,0.037 -7.226,-2.917 -7.345,-6.837 -0.119,-3.818 3.088,-7.023 7.087,-7.082 4.172,-0.062 7.073,2.72 7.132,6.835 0.061,4.133 -2.769,7.049 -6.874,7.084 z"
         id="path3302" />
      <path
         style="fill:#2683ff"
         inkscape:connector-curvature="0"
         d="m 443.536,211.412 c -4.099,-0.03 -6.94,-2.949 -6.901,-7.084 0.043,-4.104 2.951,-6.896 7.125,-6.842 4,0.055 7.186,3.232 7.092,7.07 -0.097,3.891 -3.288,6.883 -7.316,6.856 z"
         id="path3304" />
    </g>
    <g
       id="g3338"
       transform="translate(1453.675,-803.92407)">
      <path
         d="m 87.889,530.289 c -1.658,1.364 -2.486,3.168 -2.486,5.414 0,2.248 1.013,4.033 3.039,5.359 2.025,1.325 6.702,2.892 14.032,4.695 7.329,1.806 13.02,4.513 17.071,8.121 4.05,3.609 6.077,8.877 6.077,15.8 0,6.925 -2.597,12.541 -7.79,16.85 -5.193,4.311 -12.026,6.464 -20.496,6.464 -12.229,0 -23.241,-4.529 -33.037,-13.59 l 10.275,-12.596 c 8.322,7.292 16.021,10.938 23.093,10.938 3.166,0 5.651,-0.681 7.458,-2.045 1.804,-1.361 2.707,-3.204 2.707,-5.523 0,-2.32 -0.958,-4.16 -2.873,-5.524 -1.916,-1.361 -5.709,-2.743 -11.38,-4.143 -8.988,-2.137 -15.562,-4.917 -19.723,-8.344 -4.163,-3.425 -6.243,-8.801 -6.243,-16.131 0,-7.329 2.634,-12.981 7.9,-16.96 5.266,-3.979 11.84,-5.967 19.722,-5.967 5.155,0 10.312,0.884 15.47,2.651 5.154,1.769 9.648,4.272 13.479,7.514 l -8.729,12.596 c -6.704,-5.083 -13.628,-7.624 -20.772,-7.624 -2.872,10e-4 -5.137,0.683 -6.794,2.045 z"
         id="path3308"
         inkscape:connector-curvature="0"
         style="fill:#2683ff" />
      <path
         d="m 168.379,529.793 v 62.315 h -17.236 v -62.315 h -21.877 v -14.916 h 60.99 v 14.916 h -21.877 z"
         id="path3310"
         inkscape:connector-curvature="0"
         style="fill:#2683ff" />
      <path
         d="m 261.742,581.446 c -7.81,7.624 -17.422,11.437 -28.839,11.437 -11.418,0 -21.03,-3.812 -28.838,-11.437 -7.809,-7.624 -11.712,-17.106 -11.712,-28.451 0,-11.343 3.903,-20.827 11.712,-28.45 7.808,-7.624 17.419,-11.437 28.838,-11.437 11.417,0 21.029,3.812 28.839,11.437 7.807,7.624 11.712,17.107 11.712,28.45 0,11.345 -3.905,20.827 -11.712,28.451 z m -5.856,-28.395 c 0,-6.887 -2.21,-12.762 -6.629,-17.623 -4.42,-4.861 -9.854,-7.292 -16.297,-7.292 -6.446,0 -11.877,2.431 -16.297,7.292 -4.419,4.861 -6.629,10.736 -6.629,17.623 0,6.889 2.21,12.745 6.629,17.567 4.42,4.825 9.851,7.237 16.297,7.237 6.444,0 11.877,-2.412 16.297,-7.237 4.419,-4.822 6.629,-10.68 6.629,-17.567 z"
         id="path3312"
         inkscape:connector-curvature="0"
         style="fill:#2683ff" />
      <path
         d="m 346.707,540.51 c 0,12.375 -4.899,20.368 -14.695,23.977 l 19.557,27.622 h -21.214 l -17.126,-24.64 h -11.933 v 24.64 H 284.06 v -77.231 h 29.28 c 12.005,0 20.568,2.026 25.688,6.076 5.119,4.052 7.679,10.569 7.679,19.556 z m -20.771,9.17 c 2.135,-1.915 3.203,-4.953 3.203,-9.115 0,-4.161 -1.104,-7.017 -3.313,-8.562 -2.209,-1.548 -6.076,-2.32 -11.603,-2.32 h -12.927 v 22.871 h 12.596 c 5.891,-0.002 9.905,-0.958 12.044,-2.874 z"
         id="path3314"
         inkscape:connector-curvature="0"
         style="fill:#2683ff" />
      <path
         d="m 362.397,529.681 v -14.807 h 40.218 v 50.385 c 0,9.208 -2.376,16.095 -7.127,20.661 -4.751,4.567 -10.847,6.851 -18.285,6.851 -9.281,0 -17.386,-3.572 -24.309,-10.718 l 8.95,-12.375 c 4.641,5.011 9.502,7.514 14.584,7.514 2.432,0 4.512,-0.938 6.243,-2.817 1.729,-1.879 2.597,-4.695 2.597,-8.452 v -36.24 l -22.871,-0.002 0,0 z"
         id="path3316"
         inkscape:connector-curvature="0"
         style="fill:#2683ff" />
    </g>
  </g>
</svg>
